# xmcd
#
# Track frame offsets:
#	150
#	12304
#	29320
#	43136
#	55722
#	70448
#	90742
#	108477
#	130713
#	149080
#	167479
#	184497
#	207552
#	223578
#	243000
#
# Disc length: 3532 seconds
#
# Revision: 0
# Processed by: cddbd v1.5.1PL2 Copyright (c) Steve Scherf et al.
# Submitted via: dBpowerAMP V4.0
#
DISCID=df0dca0f
DTITLE=Chris Rea - Blue Guitars CD 11: 60`s and 70`s
DYEAR=1900
DGENRE=Blues
TTITLE0=My Baby told me (Blues)
TTITLE1=Got to be moving
TTITLE2=My Baby told me (Gospel)
TTITLE3=Heartbreaker
TTITLE4=Yes I Do (instrumental)
TTITLE5=Wasted Love
TTITLE6=Cool Cool Blue
TTITLE7=Clarkson Blues
TTITLE8=Who killed Love
TTITLE9=Never tie me down
TTITLE10=Mindless
TTITLE11=Ain´t that just the prettiest Thing
TTITLE12=Nobody but You
TTITLE13=Waiting for Love
TTITLE14=Blue Morning in he Rain
EXTD=
EXTT0=
EXTT1=
EXTT2=
EXTT3=
EXTT4=
EXTT5=
EXTT6=
EXTT7=
EXTT8=
EXTT9=
EXTT10=
EXTT11=
EXTT12=
EXTT13=
EXTT14=
PLAYORDER=
